<?xml version="1.0" encoding="UTF-8"?>
<svg id="Calque_2" xmlns="http://www.w3.org/2000/svg" viewBox="0 0 2916 450">
    <defs>
        <style>
            .cls-1 {
                fill: #000;
            }

            .cls-1,
            .cls-2,
            .cls-3,
            .cls-4 {
                stroke-width: 0px;
            }

            .cls-2 {
                fill: none;
            }

            .cls-3 {
                fill: #e5a8b1;
            }

            .cls-4 {
                fill: #fff;
            }
        </style>
    </defs>
    <g id="Layer_1">
        <rect class="cls-2" width="2916" height="450" />
        <path class="cls-3"
            d="M906.89,247.08c.39-22.79,15.92-44.58,37.35-52.39,7.85-2.86,16.5-4.07,23.3-8.91,1.35,12.78,2.47,26.65-4.29,37.58-3.31,5.36-8.27,9.51-13.48,13.05-11.61,7.9-24.95,13.25-42.88,10.67Z" />
        <path class="cls-1"
            d="M915.95,249.44c-3.02,0-6.11-.23-9.3-.69-.84-.12-1.46-.85-1.45-1.7.4-23.66,16.22-45.84,38.45-53.94,2.49-.91,5.07-1.66,7.57-2.38,5.59-1.62,10.87-3.15,15.33-6.32.49-.35,1.13-.41,1.67-.16.55.25.92.76.98,1.36,1.19,11.29,2.82,26.75-4.53,38.64-2.96,4.78-7.39,9.09-13.96,13.56-11.62,7.9-22.64,11.64-34.77,11.64ZM908.63,245.61c14.43,1.75,26.89-1.55,40.2-10.6,6.17-4.2,10.29-8.18,12.99-12.54,5.81-9.4,5.54-21.29,4.33-33.79-4.36,2.51-9.23,3.92-13.97,5.29-2.44.71-4.97,1.44-7.36,2.31-20.15,7.34-35.16,27.92-36.19,49.33Z" />
        <path class="cls-4"
            d="M901.71,112.63c-25.37-.28-29.71,20.03-29.61,29.01.09,8.14,3.2,29.63,30.27,29.92,25.96.28,32.4-20.59,29.22-35.17-1.8-8.22-7.06-23.52-29.87-23.76Z" />
        <path class="cls-1"
            d="M902.87,173.25c-.17,0-.35,0-.52,0-29.31-.32-31.85-24.26-31.93-31.59-.04-3.25.48-14.5,8.6-22.62,5.47-5.47,13.13-8.2,22.71-8.09h0c17.3.19,27.9,8.63,31.5,25.09,1.66,7.59,1.03,18.65-5.71,26.93-5.48,6.74-14,10.29-24.65,10.29ZM901.21,114.31c-8.43,0-15.09,2.39-19.8,7.11-5.72,5.72-7.68,14.18-7.61,20.2.09,8.4,3.07,27.98,28.6,28.25,9.83.14,17.62-3.02,22.52-9.04,5.98-7.35,6.52-17.26,5.03-24.08-3.26-14.93-12.5-22.27-28.24-22.44-.16,0-.33,0-.49,0Z" />
        <path class="cls-4"
            d="M1004.18,224.47c-.45,54.42-18.11,111.83-68,127.95-35.9,11.6-85.69,10.29-114.69-14.64-28.99-24.92-42.16-65.18-42.16-113.31,0,.24,224.85,0,224.85,0Z" />
        <path class="cls-1"
            d="M890.07,361.14c-25.3,0-51.24-6.24-69.67-22.08-27.97-24.04-42.75-63.66-42.75-114.59,0-1,.91-1.8,1.88-1.68,4.18.17,148.57.07,224.65-.01h0c.45,0,.88.18,1.2.5.32.32.49.75.49,1.2-.25,30.14-5.65,57.46-15.61,79.03-11.97,25.9-29.99,42.89-53.55,50.5-13.72,4.43-30.03,7.12-46.63,7.12ZM781.02,226.17c.32,49.09,14.68,87.21,41.57,110.33,29.53,25.39,79.31,25.22,113.07,14.31,58.5-18.89,66.31-92.14,66.81-124.65-9.8,0-60.2.06-110.63.09-28.09.01-56.19.02-77.28.01-10.55,0-19.34-.02-25.51-.03-4.03-.01-6.49-.02-8.03-.05Z" />
        <path class="cls-3"
            d="M805.59,149.18c-1.04,10.77-1.85,22.51,4.11,31.54,4.09,6.19,10.83,10.14,17.71,12.95,6.87,2.81,20.86,5.84,27.52,9.13-4.08-12.25-6.27-26.69-14.68-37.61-13.01-16.91-26.75-15.39-34.66-16.01Z" />
        <path class="cls-1"
            d="M854.93,204.49c-.25,0-.51-.06-.75-.17-3.62-1.79-9.6-3.53-15.39-5.22-4.6-1.34-8.94-2.61-12.02-3.87-8.76-3.58-14.8-8.03-18.48-13.58-6.07-9.18-5.54-20.67-4.39-32.63.09-.92.9-1.59,1.81-1.52.89.07,1.86.11,2.89.16,8.35.37,20.97.93,32.97,16.51,6.44,8.36,9.29,18.54,12.05,28.38.95,3.4,1.85,6.61,2.89,9.73.21.65.02,1.36-.49,1.8-.31.27-.71.42-1.11.42ZM807.11,150.96c-.98,10.74-1.21,20.95,3.99,28.82,3.28,4.97,8.83,9,16.94,12.32,2.92,1.19,7.18,2.44,11.69,3.75,4.38,1.28,8.87,2.58,12.48,3.95-.63-2.11-1.24-4.26-1.83-6.36-2.67-9.53-5.44-19.39-11.48-27.23-11.04-14.34-22.25-14.83-30.44-15.19-.46-.02-.91-.04-1.35-.06Z" />
        <path class="cls-1"
            d="M846.36,192.6c-.16,0-.33-.07-.44-.21-10.27-12.77-21.73-24.7-34.08-35.47-.23-.2-.26-.56-.05-.79.21-.23.56-.26.79-.05,12.4,10.82,23.91,22.8,34.22,35.62.19.24.16.6-.09.79-.1.08-.23.12-.35.12Z" />
        <path class="cls-1"
            d="M938.2,220.22c-.14,0-.28-.05-.39-.15-.23-.21-.24-.57-.02-.79,7.8-8.28,15.89-16.48,24.02-24.38.22-.22.58-.21.79.01.22.22.21.58-.01.79-8.13,7.89-16.2,16.08-23.99,24.34-.11.12-.26.18-.41.18Z" />
        <path class="cls-1"
            d="M903.95,128.28c-.3,0-.55-.24-.56-.55l-.14-5.98c0-.31.24-.57.55-.58.29,0,.57.24.58.55l.14,5.98c0,.31-.24.57-.55.58h-.01Z" />
        <path class="cls-1"
            d="M915.58,135.57c-.19,0-.37-.09-.48-.27-.16-.26-.08-.61.18-.77,1.79-1.1,3.65-2.1,5.54-2.98.28-.13.62,0,.75.28.13.28,0,.61-.27.75-1.85.85-3.68,1.83-5.43,2.91-.09.06-.19.08-.29.08Z" />
        <path class="cls-1"
            d="M921.06,152.36c-.09,0-.18-.02-.26-.06l-6.43-3.4c-.27-.14-.38-.49-.23-.76.14-.27.48-.38.76-.23l6.43,3.4c.27.14.38.49.23.76-.1.19-.29.3-.5.3Z" />
        <path class="cls-1"
            d="M906.92,163.64c-.25,0-.47-.16-.54-.42-.56-2.06-.94-4.18-1.16-6.3-.03-.31.19-.58.5-.62.31-.04.58.19.62.5.21,2.06.58,4.12,1.12,6.12.08.3-.1.61-.4.69-.05.01-.1.02-.15.02Z" />
        <path class="cls-1"
            d="M889.47,160.57c-.09,0-.17-.02-.25-.06-.28-.14-.39-.48-.25-.76,1.15-2.28,2.54-4.45,4.13-6.45.19-.24.55-.28.79-.09.24.19.28.55.09.79-1.54,1.94-2.89,4.05-4.01,6.26-.1.2-.3.31-.5.31Z" />
        <path class="cls-1"
            d="M882.34,144.65c-.27,0-.51-.2-.56-.48-.05-.31.17-.59.47-.64l6.41-.96c.31-.05.59.17.64.47.05.31-.17.59-.47.64l-6.41.96s-.06,0-.08,0Z" />
        <path class="cls-1"
            d="M890.46,132.63c-.15,0-.3-.06-.41-.18-1.64-1.79-3.26-3.66-4.82-5.54-.2-.24-.16-.59.08-.79.24-.2.59-.16.79.08,1.55,1.87,3.15,3.72,4.78,5.5.21.23.19.59-.03.79-.11.1-.24.15-.38.15Z" />
        <path class="cls-1"
            d="M993.6,237.94h0l-203.91-.05c-.31,0-.56-.25-.56-.56s.25-.56.56-.56h0l203.91.05c.31,0,.56.25.56.56s-.25.56-.56.56Z" />
        <path class="cls-1"
            d="M805.1,249.2c-4.79,0-9.6-.28-14.34-.82-.31-.04-.53-.31-.49-.62.04-.31.32-.52.62-.49,5.98.69,12.07.95,18.09.75.31.02.57.24.58.54,0,.31-.23.57-.54.58-1.3.04-2.6.06-3.91.06Z" />
        <path class="cls-3"
            d="M2666.8,299.13c31.41-5.73,45.39-45.41,76.07-54.12,13.71-3.89,28.37-.82,42.3,2.27,3.16.7,6.42,1.45,9.01,3.32s4.37,5.21,3.36,8.2c-1.57,4.65-7.98,5.3-13.03,5.1-8.97-.36-17.94-.73-26.91-1.09-5.63-.23-11.4-.44-16.74,1.3-5.05,1.64-9.35,4.9-13.32,8.35-13.93,12.1-25.04,27.09-39.5,38.59-3.47,2.76-7.24,5.36-11.59,6.4-4.36,1.04-9.43.22-12.42-3.02-2.99-3.24-2.86-9.08,2.77-15.29Z" />
        <path class="cls-1"
            d="M2672.84,319.55c-3.98,0-7.68-1.42-10.05-3.99-3.06-3.32-4.18-9.92,2.76-17.57.25-.27.58-.46.95-.53,15.76-2.88,26.88-14.48,38.66-26.76,10.84-11.31,22.05-23,37.26-27.32,14.47-4.11,30.36-.58,43.13,2.25,3.15.7,6.72,1.49,9.64,3.6,2.86,2.07,5.31,6.11,3.96,10.11-1.52,4.48-6.47,6.57-14.69,6.24l-26.91-1.09c-5.42-.22-11.04-.45-16.16,1.22-4.93,1.6-9.2,4.95-12.73,8.02-6.28,5.45-12.1,11.62-17.72,17.59-6.81,7.23-13.86,14.7-21.83,21.04-3.37,2.68-7.47,5.58-12.25,6.72-1.34.32-2.68.47-4,.47ZM2667.68,300.67c-4.14,4.78-5.1,9.68-2.41,12.6,2.34,2.54,6.57,3.53,10.79,2.52,4.14-.99,7.85-3.63,10.94-6.08,7.79-6.19,14.75-13.57,21.48-20.71,5.68-6.03,11.56-12.27,17.97-17.83,3.79-3.29,8.4-6.89,13.9-8.68,5.69-1.85,11.87-1.6,17.33-1.38l26.91,1.09c4.5.18,10.14-.35,11.36-3.95.77-2.27-.8-4.88-2.75-6.29-2.36-1.7-5.42-2.38-8.39-3.04-13.04-2.89-27.82-6.17-41.47-2.3-14.33,4.07-25.21,15.43-35.74,26.41-11.5,11.99-23.38,24.39-39.91,27.64Z" />
        <path class="cls-4"
            d="M2620.04,171.08c-3.21,6-8.37,11.51-15.45,12.91-6.61,1.3-13.71-1.22-19.62-4.8-3.39-2.05-6.61-4.51-8.9-7.64-5.8-7.9-4.44-18.8,1.2-26.15,13.5,8.47,26.99,16.93,42.77,25.68Z" />
        <path class="cls-1"
            d="M2600.93,186.02c-6.42,0-12.53-2.79-16.83-5.4-4.18-2.53-7.25-5.17-9.39-8.08-5.87-8-5.37-19.59,1.23-28.18.53-.69,1.5-.86,2.23-.4,13.25,8.31,26.95,16.91,42.69,25.64.81.45,1.1,1.46.67,2.27-4.06,7.56-9.95,12.45-16.61,13.77-1.33.26-2.67.38-3.99.38ZM2577.72,147.66c-4.83,7.25-5.01,16.46-.29,22.88,1.87,2.55,4.62,4.9,8.41,7.19,4.68,2.83,11.67,5.92,18.42,4.59,6.73-1.33,11.11-6.71,13.47-10.61-14.67-8.19-27.56-16.25-40.01-24.06Z" />
        <path class="cls-4"
            d="M2467.3,281.69c1.11,11.07,2.25,22.29,6.36,32.66,4.11,10.37,11.63,19.95,22.17,24.13,9.12,3.62,20.97,2.74,30.81,2.74,35.23,0,65.9-.47,104.3-.47,17.34,0,33.07,1.72,43.77-9.17,6.44-6.55,8.75-15.91,10.52-24.83,1.73-8.7,3.19-17.44,4.39-26.22l-222.33,1.17Z" />
        <path class="cls-1"
            d="M2516.59,342.99c-7.3,0-14.96-.41-21.38-2.95-9.93-3.94-18.36-13.08-23.11-25.07-4.22-10.66-5.37-22.07-6.47-33.11-.05-.47.11-.94.42-1.3.32-.35.77-.56,1.24-.56l222.33-1.17h0c.49,0,.95.21,1.27.57.32.37.47.86.4,1.34-1.2,8.77-2.68,17.62-4.41,26.32-1.83,9.21-4.19,18.78-10.97,25.68-9.91,10.07-23.91,9.9-38.75,9.72-2.05-.03-4.12-.05-6.22-.05-19.61,0-37.31.12-54.42.24-16.79.12-32.64.23-49.88.23-1.57,0-3.18.02-4.83.05-1.7.02-3.45.05-5.22.05ZM2469.16,283.36c1.03,10.23,2.25,20.72,6.07,30.36,4.41,11.14,12.15,19.59,21.22,23.18,7.35,2.91,16.9,2.78,25.31,2.67,1.66-.02,3.3-.05,4.88-.05,17.23,0,33.08-.11,49.86-.23,17.12-.12,34.82-.24,54.44-.24,2.11,0,4.2.03,6.27.05,14.71.18,27.41.33,36.3-8.72,6.14-6.24,8.34-15.27,10.07-23.98,1.59-8,2.97-16.13,4.11-24.2l-218.53,1.15Z" />
        <path class="cls-4"
            d="M2618.56,176.73c14.26-16.62,28.52-33.23,42.79-49.85,4.64-5.41,9.57-11.7,8.65-18.68-.99-7.49-8.24-12.47-14.83-16.5-8.9-5.44-17.81-10.87-26.71-16.31-4.24-2.59-9-5.29-13.94-4.47-6.53,1.08-10.28,7.64-12.97,13.51-9.94,21.71-19.02,38.61-29.11,64.56l46.13,27.74Z" />
        <path class="cls-1"
            d="M2618.56,178.41c-.3,0-.6-.08-.87-.24l-46.13-27.74c-.7-.42-1-1.29-.7-2.06,7.07-18.17,13.52-31.66,20.34-45.94,2.86-5.98,5.81-12.16,8.81-18.71,2.97-6.48,6.98-13.28,14.23-14.47,5.38-.89,10.4,1.83,15.1,4.7l26.71,16.31c6.99,4.27,14.54,9.51,15.62,17.72,1,7.57-4.14,14.29-9.04,20l-42.78,49.85c-.33.39-.8.59-1.28.59ZM2574.52,148.28l43.69,26.27,41.86-48.76c4.63-5.39,9.07-11.17,8.26-17.36-.89-6.73-7.71-11.42-14.04-15.28l-26.71-16.31c-4.32-2.64-8.54-4.94-12.79-4.25-5.68.94-9.11,6.87-11.71,12.55-3.01,6.57-5.97,12.76-8.83,18.76-6.63,13.88-12.9,27-19.72,44.39Z" />
        <path class="cls-1"
            d="M2606.06,161.72c-.13,0-.25-.04-.36-.13-.24-.2-.28-.55-.08-.79,15.82-19.38,31.04-39.6,45.25-60.1.18-.26.53-.32.78-.14.25.18.32.53.14.78-14.23,20.53-29.47,40.77-45.3,60.17-.11.14-.27.21-.44.21Z" />
        <path class="cls-1"
            d="M2591.77,151.53c-.09,0-.18-.02-.26-.07-.27-.15-.38-.49-.23-.76l34.44-64.63c.15-.28.49-.38.76-.23.27.15.38.49.23.76l-34.44,64.63c-.1.19-.3.3-.5.3Z" />
        <path class="cls-1"
            d="M2479.77,294.97c-.31,0-.56-.25-.56-.56,0-.31.24-.56.56-.57l197.39-2.46c.35.02.56.25.57.56,0,.31-.24.56-.56.57l-197.39,2.46h0Z" />
        <path class="cls-1"
            d="M2491.56,303.83c-3.95,0-7.9-.1-11.82-.31-.31-.02-.55-.28-.53-.59.02-.31.28-.56.59-.53,7.33.39,14.76.41,22.1.07.31-.02.57.23.59.53.02.31-.23.57-.53.59-3.45.16-6.92.24-10.39.24Z" />
        <path class="cls-1"
            d="M2566.43,227.59c-.19,0-.38-.03-.57-.1-.88-.31-1.33-1.28-1.02-2.16l4.85-13.49c.32-.88,1.28-1.33,2.16-1.02.88.31,1.33,1.28,1.02,2.16l-4.85,13.49c-.25.69-.9,1.12-1.59,1.12Z" />
        <path class="cls-1"
            d="M2596.04,238.47c-.57,0-1.12-.28-1.44-.8l-5.58-9.05c-.49-.79-.24-1.83.55-2.32.79-.49,1.83-.24,2.32.55l5.58,9.05c.49.79.24,1.83-.55,2.32-.28.17-.58.25-.88.25Z" />
        <path class="cls-1"
            d="M2572.97,267.75c-.17,0-.34-.03-.51-.08-.89-.28-1.38-1.23-1.1-2.12l4.17-13.19c.28-.89,1.23-1.38,2.12-1.1.89.28,1.38,1.23,1.1,2.12l-4.17,13.19c-.23.72-.89,1.18-1.61,1.18Z" />
        <path class="cls-1"
            d="M2610.51,268.06c-.52,0-1.04-.24-1.37-.7l-4.51-6.26c-.54-.76-.37-1.81.38-2.35.76-.54,1.81-.37,2.35.38l4.51,6.26c.54.76.37,1.81-.38,2.35-.3.22-.64.32-.98.32Z" />
        <path class="cls-1"
            d="M2541.69,267.65c-.24,0-.48-.05-.71-.16-.85-.39-1.21-1.39-.82-2.24l4.92-10.64c.39-.85,1.39-1.21,2.24-.82.85.39,1.21,1.39.82,2.24l-4.92,10.64c-.28.62-.89.98-1.53.98Z" />
        <path class="cls-3"
            d="M1323.38,337.76c-6.11.09-12.13,2.97-16.12,7.69-3.98,4.72-5.86,11.22-5.02,17.38.49,3.62,1.87,7.08,3.83,10.14,4.86,7.56,13.6,12.48,22.47,12.27,8.87-.22,17.52-5.75,21.22-13.96s2.04-18.73-4.27-25.09c-1.9-1.92-4.15-3.45-6.5-4.75-4.75-2.64-9.92-3.77-15.62-3.68Z" />
        <path class="cls-1"
            d="M1328,386.93c-9.1,0-18.21-5.07-23.34-13.05-2.17-3.37-3.58-7.12-4.09-10.82-.9-6.63,1.12-13.62,5.4-18.7,4.29-5.09,10.79-8.19,17.38-8.29h0c6.19-.09,11.59,1.18,16.47,3.89,2.81,1.56,5.06,3.21,6.87,5.04,6.68,6.73,8.62,18.07,4.61,26.97-3.92,8.71-13.05,14.72-22.72,14.96-.2,0-.4,0-.59,0ZM1323.41,339.44h0c-5.63.09-11.18,2.74-14.85,7.09-3.68,4.36-5.41,10.37-4.64,16.07.44,3.22,1.67,6.49,3.58,9.45,4.62,7.18,12.88,11.71,21.02,11.49,8.4-.2,16.32-5.41,19.72-12.97,3.45-7.67,1.8-17.43-3.93-23.21-1.58-1.6-3.59-3.06-6.12-4.46-4.35-2.42-9.16-3.55-14.78-3.47Z" />
        <path class="cls-1"
            d="M1324.62,353.49h-.01c-.31,0-.56-.26-.55-.57l.11-5.61c0-.31.26-.55.56-.55h.01c.31,0,.56.26.55.57l-.11,5.61c0,.31-.26.55-.56.55Z" />
        <path class="cls-1"
            d="M1332.29,354.72c-.09,0-.18-.02-.27-.07-.27-.15-.37-.49-.23-.76l1.88-3.48c.15-.27.49-.37.76-.23.27.15.37.49.23.76l-1.88,3.48c-.1.19-.3.29-.49.29Z" />
        <path class="cls-1"
            d="M1323.14,375.92c-.06,0-.12,0-.18-.03-.29-.1-.45-.42-.35-.71.57-1.7,1.32-3.35,2.22-4.9.16-.27.5-.36.77-.2.27.16.36.5.2.77-.86,1.49-1.58,3.07-2.13,4.7-.08.24-.3.38-.53.38Z" />
        <path class="cls-1"
            d="M1417.45,263.61c-7.11,0-14.37-1.52-21.39-3.2-11.62-2.77-23.38-5.9-34.76-8.93-32.86-8.74-66.85-17.78-101.18-19.25h-.23c-2.75-.13-5.59-.25-8.26-1.46-2.82-1.28-5.55-4.21-5.28-7.85.28-3.79,4.52-6.41,8.46-6.74h0c31.82-2.71,62.94-12.6,93.04-22.16,16.22-5.15,33-10.49,49.76-14.66,13.11-3.27,28.02-5.52,39.18,2.56,4.71,3.41,8.46,8.47,11.81,15.94,3.84,8.57,7.81,21.7,4.91,35.55-2.7,12.89-11.21,23.54-22.22,27.81-4.47,1.73-9.12,2.4-13.84,2.4ZM1417.62,179.76c-6.34,0-12.97,1.32-19.2,2.87-16.65,4.15-33.38,9.46-49.55,14.6-30.28,9.62-61.58,19.57-93.78,22.31h0c-2.74.23-5.26,1.93-5.39,3.63-.14,1.92,1.56,3.74,3.31,4.53,2.07.94,4.47,1.04,7.01,1.15h.23c34.7,1.5,68.87,10.59,101.91,19.37,11.36,3.02,23.1,6.14,34.67,8.91,11.15,2.66,22.91,4.93,33.23.93,9.95-3.86,17.67-13.57,20.13-25.35,2.71-12.96-1.05-25.36-4.69-33.48-3.09-6.9-6.49-11.54-10.7-14.59-4.98-3.61-10.94-4.89-17.19-4.89ZM1254.95,217.86h.01-.01Z" />
        <path class="cls-1"
            d="M1414.48,238.76c-11.88,0-23.73-1.2-35.3-2.38l-87.68-8.9c-7.47-.76-15.19-1.54-22.78-2.43-.65-.08-1.2-.52-1.4-1.14-.21-.62-.04-1.31.44-1.76,3.26-3.1,8.54-4.86,12.1-2.72,21.06-.87,42.35-4.61,62.94-8.23,29.31-5.15,59.62-10.48,89.74-7.59,11.84,1.14,19.17,5.37,21.22,12.23,1.74,5.83-1.13,12.76-6.97,16.85-5.22,3.66-11.68,4.76-17.31,5.34-4.99.52-10,.73-15.01.73ZM1273.93,222.25c6,.67,12.03,1.28,17.9,1.88l87.68,8.9c16.28,1.65,33.12,3.36,49.62,1.65,5.2-.54,11.13-1.53,15.72-4.75,3.94-2.77,7.16-8.16,5.67-13.13-2.05-6.87-11.09-9.14-18.31-9.83-29.66-2.85-59.74,2.44-88.83,7.56-20.88,3.67-42.47,7.47-63.94,8.3-.4.02-.77-.1-1.08-.34-1.04-.78-2.7-.81-4.43-.23Z" />
        <path class="cls-3"
            d="M1288.45,208.1c-2.61,9-2.66,18.59-.16,27.58-33.73,1.04-85.8,2.75-106.8,1.65-10.65-.56-21.04-4.06-17-18.25,1.25-4.39,5.61-7.61,10.32-9.08,4.71-1.48,9.79-1.5,14.77-1.51,24.83-.04,73.4-.83,98.88-.39Z" />
        <path class="cls-1"
            d="M1200.24,239.38c-7.5,0-13.97-.11-18.84-.36-8.69-.46-14.34-2.68-17.29-6.79-2.43-3.4-2.85-7.97-1.25-13.6,1.3-4.57,5.58-8.4,11.44-10.23,5-1.57,10.45-1.58,15.27-1.59,8.48-.02,19.87-.12,31.92-.23,23.53-.21,50.21-.45,66.99-.17.53,0,1.02.26,1.33.68.31.42.41.97.26,1.47-2.53,8.72-2.58,17.94-.15,26.66.14.5.04,1.03-.27,1.45-.31.42-.79.67-1.31.69l-4.81.15c-26.24.82-59.82,1.86-83.29,1.86ZM1269.26,209.66c-14.69,0-31.92.16-47.74.3-12.06.11-23.44.21-31.94.23-4.79.01-9.75.02-14.26,1.43-4.7,1.47-8.23,4.51-9.2,7.93-1.3,4.59-1.05,8.19.75,10.71,2.27,3.18,7.23,5,14.72,5.39,19.95,1.05,67.28-.43,101.85-1.5l2.71-.08c-1.87-7.99-1.83-16.31.13-24.31-5.01-.07-10.78-.1-17.01-.1Z" />
        <path class="cls-1"
            d="M1274.8,232.34c-.27,0-.51-.19-.55-.47-1.06-6.04-.99-12.14.2-18.15.06-.3.36-.5.66-.44.31.06.5.36.44.66-1.16,5.87-1.23,11.84-.2,17.74.05.3-.15.6-.46.65-.03,0-.07,0-.1,0Z" />
        <path class="cls-4"
            d="M209.62,116.42c-102.99-1.12-120.61,81.31-120.21,117.77.37,33.06,12.99,120.29,122.87,121.48,105.4,1.14,131.55-83.6,118.61-142.77-7.3-33.38-28.66-95.47-121.28-96.48Z" />
        <path class="cls-1"
            d="M214.33,357.36c-.69,0-1.37,0-2.07-.01-114.3-1.24-124.22-94.57-124.54-123.15-.14-12.69,1.85-56.57,33.41-88.14,21.19-21.2,50.97-31.76,88.5-31.33,40.8.44,72.38,12.77,93.87,36.65,13.93,15.48,23.43,35.49,29.04,61.15,6.48,29.63,4.06,72.76-22.14,104.96-21.25,26.11-54.44,39.87-96.07,39.87ZM207.56,118.1c-35.63,0-63.89,10.21-84.03,30.36-24.34,24.35-32.71,60.24-32.42,85.72.31,27.8,9.97,118.6,121.2,119.81,41.52.46,74.56-12.9,95.49-38.61,25.45-31.26,27.77-73.24,21.46-102.11-13.65-62.42-53.9-94.44-119.65-95.15-.68,0-1.37-.01-2.05-.01Z" />
        <path class="cls-4"
            d="M210.07,143.64c-80.56-.87-94.35,63.6-94.03,92.12.29,25.86,10.16,94.09,96.11,95.02,82.45.89,102.9-65.39,92.78-111.68-5.71-26.11-22.42-74.68-94.86-75.47Z" />
        <path class="cls-1"
            d="M213.75,331.35c-.54,0-1.07,0-1.61,0-88.72-.96-96.42-73.4-96.67-95.58-.11-9.86,1.43-43.91,25.91-68.4,16.43-16.43,39.55-24.61,68.68-24.29h0c52.42.57,84.52,26.11,95.41,75.91,5.03,23.01,3.16,56.48-17.16,81.46-16.47,20.24-42.23,30.91-74.56,30.91ZM208.45,144.19c-28.08,0-50.37,8.06-66.27,23.97-24.17,24.18-25.69,57.85-25.58,67.59.24,21.92,7.86,93.52,95.56,94.47,32.72.34,58.77-10.19,75.29-30.48,20.07-24.66,21.91-57.76,16.94-80.51-10.76-49.22-42.49-74.46-94.32-75.02-.54,0-1.08,0-1.61,0Z" />
        <path class="cls-3"
            d="M157.86,280.34c-13.03-9.22-13.73-33.05-1.27-43.14,11.73-9.51,30.25-6.87,39.59-19.1,6.54-8.56,5.92-21.32,11.31-30.78,6.87-12.04,22.59-15.63,34.76-10.52,12.17,5.11,20.95,17.11,26.18,30.08,2.96,7.34,4.99,15.25,4.78,23.26-.37,14.68-8.38,28.3-19.14,37.21-10.76,8.92-24.02,13.63-37.33,16.35-19.77,4.05-42.95,7.92-58.89-3.35Z" />
        <path class="cls-1"
            d="M185.19,289.47c-10.43,0-20.17-2-28.31-7.76-6.52-4.61-10.59-13-10.9-22.45-.31-9.54,3.26-18.28,9.54-23.38,5.51-4.46,12.34-6.36,18.95-8.19,7.99-2.21,15.53-4.3,20.36-10.63,3.35-4.39,4.71-9.99,6.15-15.91,1.21-5,2.47-10.17,5.04-14.68,6.9-12.09,23.09-17.03,36.88-11.24,11.33,4.75,20.95,15.76,27.09,31,3.49,8.65,5.09,16.48,4.9,23.93-.36,14.14-7.74,28.52-19.75,38.47-9.62,7.97-22.07,13.43-38.06,16.71-10.71,2.19-21.63,4.13-31.89,4.13ZM230.83,176.23c-8.47,0-17.18,3.7-21.87,11.92-2.33,4.09-3.53,9.03-4.69,13.8-1.46,6.01-2.96,12.22-6.75,17.17-5.52,7.22-13.97,9.56-22.14,11.83-6.28,1.74-12.77,3.54-17.73,7.56-5.47,4.44-8.57,12.15-8.3,20.65.27,8.4,3.82,15.81,9.48,19.81h0c15.04,10.64,36.69,7.35,57.57,3.08,15.44-3.16,27.41-8.39,36.59-16,11.27-9.34,18.2-22.78,18.53-35.96.18-6.98-1.35-14.37-4.66-22.59-5.8-14.39-14.78-24.75-25.27-29.15-3.3-1.38-7.01-2.11-10.77-2.11Z" />
        <path class="cls-4"
            d="M170.11,249.94c-3.34.28-5.92,3.51-6.2,6.85-.27,3.34,1.36,6.6,3.66,9.04,1.61,1.71,3.6,3.12,5.87,3.7,2.27.58,4.84.26,6.69-1.18,3.08-2.4,3.35-7.14,1.83-10.74-2.08-4.93-7.03-8.08-11.85-7.67Z" />
        <path class="cls-1"
            d="M175.61,271.49c-.86,0-1.73-.11-2.59-.33-2.37-.61-4.67-2.05-6.68-4.18-2.9-3.08-4.4-6.84-4.12-10.34.36-4.37,3.76-8.06,7.74-8.39,5.61-.46,11.19,3.1,13.55,8.69,1.72,4.08,1.47,9.76-2.35,12.72-1.53,1.19-3.5,1.81-5.55,1.81ZM170.94,251.59c-.23,0-.46,0-.69.03h0c-2.35.2-4.44,2.58-4.66,5.31-.21,2.54.96,5.36,3.21,7.74,1.57,1.66,3.32,2.77,5.06,3.22,1.9.49,3.91.15,5.23-.88,2.45-1.9,2.5-5.93,1.31-8.75-1.67-3.96-5.57-6.67-9.46-6.67ZM170.11,249.94h.01-.01Z" />
        <path class="cls-1"
            d="M205.89,266.57c-.25,0-.48-.17-.55-.43-2.84-11.42-5.25-23.1-7.14-34.72-.05-.31.16-.59.46-.64.3-.05.6.16.65.46,1.89,11.59,4.29,23.24,7.12,34.63.07.3-.11.61-.41.68-.05.01-.09.02-.14.02Z" />
        <path class="cls-1"
            d="M223.77,266.18c-.25,0-.48-.17-.55-.43l-12.89-52.64c-.07-.3.11-.61.41-.68.3-.07.61.11.68.41l12.89,52.64c.07.3-.11.61-.41.68-.04.01-.09.02-.13.02Z" />
        <path class="cls-1"
            d="M242.3,256.13c-.25,0-.47-.16-.54-.41l-18.21-66.81c-.08-.3.09-.61.39-.69.3-.08.61.1.69.39l18.21,66.81c.08.3-.09.61-.39.69-.05.01-.1.02-.15.02Z" />
        <path class="cls-1"
            d="M256.07,238.81c-.24,0-.47-.16-.54-.41-3.29-11.59-6.42-23.4-9.29-35.11-.07-.3.11-.61.41-.68.3-.08.61.11.68.41,2.86,11.7,5.98,23.49,9.27,35.07.08.3-.09.61-.39.69-.05.02-.1.02-.15.02Z" />
        <path class="cls-4"
            d="M543.05,86.72c-11.75,13.64-21.04,30.91-20.52,49.86s13.38,39.09,31.35,42.46c7.89,1.48,16.08-.21,23.73,2.53,16.34,5.86,22.53,28.54,38.07,36.71,5.06,2.66,10.74,3.53,16.25,3.41,22.13-.48,41.51-17.33,48.1-39.08,6.6-21.75,1.23-47.16-11.82-66.78-13.05-19.62-33.1-33.64-54.5-41.19-13.58-4.8-28.09-7.16-41.77-4.51-13.68,2.64-24.82,11.88-28.89,16.6Z" />
        <path class="cls-1"
            d="M630.95,223.38c-6.1,0-11.5-1.22-16.07-3.62-7.65-4.02-13.07-11.33-18.32-18.39-5.84-7.86-11.36-15.29-19.53-18.22-4.2-1.51-8.58-1.59-13.22-1.68-3.35-.07-6.82-.13-10.25-.78-19.57-3.68-32.23-25.74-32.72-44.07-.58-21.41,11.06-39.55,20.93-51.01h0c4.07-4.73,15.55-14.39,29.85-17.15,12.74-2.46,27.09-.92,42.65,4.58,23.18,8.19,42.83,23.05,55.34,41.85,13.86,20.84,18.47,46.97,12.03,68.2-7.05,23.23-27.48,39.8-49.68,40.28-.34,0-.67.01-1.01.01ZM544.32,87.82c-9.48,11-20.67,28.38-20.11,48.71.46,17.02,12.05,37.48,29.97,40.85,3.15.59,6.48.66,9.69.72,4.71.09,9.58.19,14.29,1.88,9.13,3.28,15.22,11.46,21.1,19.39,5.02,6.76,10.21,13.75,17.18,17.41,4.31,2.26,9.49,3.35,15.43,3.22,20.77-.45,39.9-16.03,46.53-37.88,6.15-20.29,1.71-45.34-11.61-65.36-12.1-18.2-31.16-32.59-53.65-40.54-14.99-5.3-28.75-6.79-40.89-4.45-13.39,2.59-24.12,11.63-27.93,16.05h0Z" />
        <path class="cls-4"
            d="M569.17,105.78c-4.99,4.33-9.5,9.55-10.24,16.44-.74,6.9,1.17,14.07,4.43,20.38,3.45,6.69,8.81,12.86,15.71,14.99,3.49,1.07,7.16,1.04,10.67.5,10.41-1.6,20.15-8.15,24.13-18.22,4.94-12.48-.59-29.04-12.15-36.42-11.56-7.38-26.2-3.18-32.54,2.32Z" />
        <path class="cls-1"
            d="M585.18,160.15c-2.37,0-4.56-.32-6.62-.95-8.85-2.72-14.27-11.08-16.71-15.82-2.6-5.06-5.52-12.86-4.6-21.34.86-7.96,6.23-13.55,10.81-17.53h0c6.56-5.7,22.09-10.43,34.56-2.47,12.34,7.88,18.08,25.13,12.81,38.47-3.99,10.08-13.74,17.46-25.44,19.26-1.68.26-3.28.39-4.8.39ZM570.27,107.06c-4.12,3.58-8.94,8.56-9.67,15.35-.82,7.64,1.86,14.79,4.25,19.43,2.2,4.27,7.04,11.79,14.7,14.15,2.88.89,6.13,1.03,9.92.45,10.52-1.62,19.27-8.2,22.81-17.17,4.63-11.7-.63-27.45-11.49-34.38-11.02-7.04-24.73-2.86-30.53,2.17h0Z" />
        <path class="cls-1"
            d="M587.26,145.98h-.02c-4.09-.17-8.36-2.58-11.43-6.45-2.52-3.18-4.33-7.35-5.4-12.4-.06-.3.13-.6.43-.67.3-.06.6.13.67.43,1.03,4.88,2.77,8.89,5.18,11.93,2.86,3.61,6.82,5.86,10.59,6.02.31.01.55.28.54.59-.01.3-.26.54-.56.54Z" />
        <path class="cls-3"
            d="M632.67,273.81c8.48-4.17,16.22-11.19,11.45-20.21-3.37-6.37-10.37-10.01-17.14-10.85-6.77-.84-13.45.67-19.98,2.17-8.46,1.94-16.92,3.89-25.38,5.83-4.22.97-8.51,1.97-12.21,4.19-3.7,2.23-6.79,5.9-7.33,10.42-.85,7.1,4.93,14.01,11.5,16.6,6.57,2.59,13.67,1.9,20.46,1.09,14.28-1.71,25.91-2.98,38.62-9.23Z" />
        <path class="cls-1"
            d="M584.35,285.45c-3.9,0-7.7-.49-11.37-1.93-6.84-2.69-13.56-10.04-12.56-18.37.56-4.63,3.52-8.89,8.13-11.66,3.96-2.38,8.4-3.4,12.7-4.39l25.38-5.83c6.29-1.44,13.42-3.09,20.56-2.2,8.07,1,15.13,5.5,18.42,11.73,1.76,3.33,2.12,6.65,1.07,9.88-1.95,6.01-8.29,10.19-13.27,12.64h0c-12.65,6.22-24.43,7.63-38.07,9.26l-1.09.13c-3.35.4-6.66.74-9.91.74ZM622.95,244.19c-5.26,0-10.48,1.2-15.56,2.37l-25.38,5.83c-4.04.93-8.22,1.89-11.72,3.99-3.71,2.24-6.09,5.58-6.52,9.18-.77,6.4,4.71,12.57,10.45,14.83,6.01,2.37,12.45,1.85,19.64.98l1.09-.13c13.89-1.66,24.85-2.97,36.98-8.94,6.21-3.06,10.31-6.84,11.55-10.65.77-2.36.49-4.74-.85-7.26-3.33-6.31-10.38-9.28-15.86-9.96-1.28-.16-2.56-.23-3.83-.23ZM632.68,273.81h.01-.01Z" />
        <path class="cls-3"
            d="M558.7,239.05c9.59.09,19.64-2.66,18.84-12.72-.56-7.11-5.62-13.41-11.59-17.16-5.97-3.75-12.8-5.38-19.49-6.96-8.67-2.04-17.34-4.09-26.01-6.13-4.33-1.02-8.73-2.05-13.07-1.73-4.35.32-8.71,2.19-11.04,5.92-3.66,5.87-1.06,14.53,4.01,19.72,5.08,5.19,11.97,7.74,18.63,10.04,14,4.83,25.35,8.88,39.73,9.01Z" />
        <path class="cls-1"
            d="M559.16,240.74c-.16,0-.32,0-.48,0-14.28-.13-25.83-4.12-39.19-8.73l-1.07-.37c-7.21-2.49-14.11-5.16-19.28-10.45-5.28-5.4-8.56-14.87-4.24-21.79,2.41-3.87,6.91-6.31,12.35-6.71,4.64-.34,9.19.73,13.58,1.77l26.01,6.13c6.44,1.52,13.73,3.24,20,7.17,7.08,4.44,11.82,11.51,12.37,18.45.29,3.68-.69,6.76-2.92,9.16-4.12,4.42-11.5,5.38-17.14,5.38ZM509.02,195.99c-.51,0-1.02.02-1.53.05-4.35.32-7.9,2.19-9.73,5.13-3.28,5.26-.65,13.11,3.79,17.65,4.66,4.77,10.9,7.18,17.97,9.62l1.07.37c13.62,4.7,24.39,8.42,38.12,8.55h0c7.11.03,12.46-1.46,15.11-4.31,1.58-1.7,2.25-3.85,2.03-6.59-.56-7.05-5.95-12.82-10.8-15.86-5.8-3.64-12.5-5.22-18.99-6.75l-26.01-6.13c-3.64-.86-7.39-1.74-11.03-1.74Z" />
        <path class="cls-1"
            d="M620.54,269.14c-.24,0-.47-.16-.54-.4l-4.49-15.3c-.09-.3.08-.61.38-.7.3-.08.61.08.7.38l4.49,15.3c.09.3-.08.61-.38.7-.05.02-.11.02-.16.02Z" />
        <path class="cls-1"
            d="M604.3,273.14c-.22,0-.43-.13-.52-.35-2.15-5.25-3.89-10.71-5.16-16.22-.07-.3.12-.6.42-.67.31-.07.6.12.67.42,1.26,5.45,2.98,10.85,5.11,16.05.12.29-.02.62-.31.73-.07.03-.14.04-.21.04Z" />
        <path class="cls-1"
            d="M588.65,275.32c-.22,0-.43-.13-.52-.35-2.03-4.98-3.53-10.17-4.44-15.44-.05-.31.15-.6.46-.65.31-.06.6.15.65.46.9,5.18,2.38,10.3,4.38,15.21.12.29-.02.61-.31.73-.07.03-.14.04-.21.04Z" />
        <path class="cls-1"
            d="M553.78,228.36s-.03,0-.05,0c-.31-.03-.54-.3-.51-.61.34-4.09.4-8.27.19-12.41-.02-.31.22-.58.53-.59.3-.03.57.22.59.53.22,4.19.16,8.42-.19,12.56-.02.29-.27.52-.56.52Z" />
        <path class="cls-1"
            d="M535.63,224.9s-.04,0-.06,0c-.31-.03-.53-.31-.5-.62l1.4-13.51c.03-.31.31-.54.62-.5.31.03.53.31.5.62l-1.4,13.52c-.03.29-.27.5-.56.5Z" />
        <path class="cls-1"
            d="M517.38,221.05s-.1,0-.14-.02c-.3-.08-.48-.39-.4-.69,1.22-4.68,2.1-9.5,2.61-14.32.03-.31.3-.54.62-.5.31.03.53.31.5.62-.52,4.87-1.4,9.75-2.64,14.49-.07.25-.29.42-.54.42Z" />
        <path class="cls-4"
            d="M2143.75,276.07c20.2-.2,12.53,22.59,16.34,28.29,2.75,4.12,12.41,2.72,17.36,2.78,31.16.39,52.64-.1,79.12.23,3.7.05,7.46.1,10.97,1.24,1.71.56,3.46,1.49,4.2,3.13.85,1.89.07,4.18-1.28,5.76-3.6,4.24-4.12,3.02-9.29,5.05-5.38,2.11-46.54,2.06-85.44,2.45-5.69.06-15.66-1.44-16.04,8.62-.23,5.93,5.35,26.4-21.57,26.46-55.09.55-78.32,5.02-80.27-9.86-.55-4.17-1.52-35.21-.63-63.08.57-18.04,23.01-10.44,86.53-11.08Z" />
        <path class="cls-1"
            d="M2087.19,362.83c-20.05,0-29.67-2.13-31.02-12.37-.53-4.07-1.54-35.31-.65-63.36.47-14.74,13.39-14.34,44.62-13.36,11.61.37,26.06.82,43.59.64l.02,1.69-.02-1.69c.1,0,.19,0,.29,0,15.57,0,16.05,12.85,16.37,21.38.12,3.28.24,6.37,1.1,7.67,1.69,2.53,8.21,2.28,12.52,2.11,1.26-.05,2.45-.09,3.46-.08,16.19.2,29.72.17,42.8.13,12.14-.03,23.6-.06,36.32.1,3.6.04,7.68.09,11.47,1.33,2.64.86,4.4,2.22,5.22,4.04,1.03,2.28.43,5.24-1.53,7.55-2.74,3.23-4.05,3.71-6.54,4.4-.92.26-1.96.55-3.43,1.13-4.49,1.77-28.51,2.09-67.54,2.41-6.12.05-12.34.1-18.5.16-.67,0-1.39,0-2.16-.02-6.99-.13-11.96.29-12.22,7.02-.03.7.04,1.71.13,2.89.34,4.91.91,13.12-4.44,18.86-3.89,4.18-10.26,6.3-18.95,6.32-11.19.11-21.05.39-29.74.63-8.06.22-15.1.42-21.19.42ZM2082.17,276.73c-17.4,0-23,2-23.27,10.47-.89,27.88.09,58.81.62,62.81,1.36,10.34,16.21,9.92,48.77,9.02,8.71-.24,18.58-.52,29.82-.63,7.73-.02,13.27-1.78,16.5-5.25,4.35-4.67,3.86-11.69,3.54-16.33-.09-1.27-.16-2.37-.13-3.25.41-10.56,9.95-10.38,15.66-10.27.73.01,1.42.03,2.06.02,6.16-.06,12.38-.11,18.51-.16,30.53-.25,62.1-.51,66.33-2.17,1.62-.64,2.8-.97,3.75-1.23,2.01-.56,2.68-.75,4.88-3.34.92-1.08,1.59-2.73,1.02-3.98-.41-.92-1.49-1.66-3.19-2.22-3.31-1.08-6.95-1.12-10.47-1.16-12.7-.16-24.15-.13-36.27-.1-13.1.03-26.64.06-42.85-.13-.93-.01-2.08.03-3.29.08-5.67.22-12.72.49-15.45-3.61-1.39-2.09-1.52-5.48-1.67-9.41-.4-10.69-1.56-18.28-13.25-18.13-17.59.18-32.08-.28-43.72-.64-7.01-.22-12.92-.38-17.87-.38Z" />
        <path class="cls-3"
            d="M2239.86,328.31c2.27-8.75,2.46-18.13.56-26.98,27.62-.28,70.25-.8,87.42.74,8.71.78,17.15,4.44,13.63,18.23-1.09,4.26-4.71,7.32-8.58,8.66-3.88,1.34-8.04,1.25-12.11,1.15-20.32-.5-60.08-.81-80.92-1.8Z" />
        <path class="cls-1"
            d="M2323.92,331.85c-1.09,0-2.15-.03-3.18-.05-6.94-.17-16.25-.32-26.11-.48-19.27-.31-41.11-.67-54.85-1.32-.51-.02-.98-.28-1.28-.68-.3-.41-.4-.93-.27-1.42,2.21-8.52,2.4-17.58.54-26.2-.11-.5.02-1.01.33-1.41.32-.4.79-.63,1.3-.63l3.93-.04c28.36-.29,67.2-.69,83.66.79,6.69.6,11.19,2.64,13.73,6.24,2.43,3.43,2.89,8.17,1.38,14.08-1.12,4.39-4.83,8.16-9.67,9.83-3.12,1.08-6.4,1.29-9.52,1.29ZM2241.98,326.72c13.75.59,34.39.92,52.71,1.22,9.86.16,19.18.31,26.14.48,3.88.1,7.88.2,11.51-1.06,2.96-1.02,6.49-3.53,7.5-7.48,1.25-4.91.96-8.71-.87-11.3-1.94-2.74-5.63-4.32-11.28-4.83-16.29-1.46-56.63-1.05-83.32-.78l-1.9.02c1.41,7.84,1.24,15.96-.49,23.72Z" />
        <path class="cls-1"
            d="M2083.58,340c-.92,0-1.67-.73-1.69-1.65-.02-.93.72-1.7,1.65-1.72l54.34-1.08c.94.02,1.7.72,1.72,1.65.02.93-.72,1.7-1.65,1.72l-54.34,1.08h-.04Z" />
        <path class="cls-1"
            d="M2083.38,319.88c-.92,0-1.67-.73-1.69-1.65-.02-.93.72-1.7,1.65-1.72l54.34-1.08c.98,0,1.7.72,1.72,1.65.02.93-.72,1.7-1.65,1.72l-54.34,1.08h-.03Z" />
        <path class="cls-1"
            d="M2083.17,299.4c-.92,0-1.67-.73-1.69-1.65-.02-.93.72-1.7,1.65-1.72l54.34-1.08c.93-.02,1.7.72,1.72,1.65.02.93-.72,1.7-1.65,1.72l-54.34,1.08h-.04Z" />
        <path class="cls-1"
            d="M2251.15,324.34c-.06,0-.12,0-.18-.03-.29-.1-.45-.42-.35-.71,1.82-5.22,1.71-11.29-.31-17.08-.1-.29.05-.61.35-.72.29-.1.61.05.72.35,2.1,6.03,2.21,12.36.3,17.82-.08.23-.3.38-.53.38Z" />
        <path class="cls-4"
            d="M1562.16,316.87c-3.69-2.42-11.72-3.52-15.75-7.93-4.03-4.41-5.02-12.25-.45-16.19,4.55-3.91,11.81-2.11,16.86-5.34,4.27-2.72,5.76-8.15,8.27-12.58,4.63-8.15,13.31-13.32,22.29-15.67,8.98-2.35,18.35-2.24,27.59-2.11,11.64.16,23.97.52,33.68,6.9,10.26,6.73,16.33,19.44,27.8,23.78,4.43,1.67,10.07,2.51,11.88,6.93,1.74,4.25-1.48,9.06-5.31,11.63-3.82,2.57-8.41,3.99-11.75,7.17-5.32,5.06-6.24,13.32-10.71,19.17-2.86,3.74-7.02,6.27-11.33,8.1-13.93,5.9-29.58,5.11-44.52,3.62-12.18-1.22-25.18-3.23-34.02-11.71-6.23-5.98-10.06-12.83-14.53-15.76Z" />
        <path class="cls-1"
            d="M1628.55,347.1c-6.18,0-12.27-.5-18.01-1.08-12.06-1.2-25.71-3.24-35.02-12.17-2.87-2.76-5.26-5.7-7.36-8.3-2.51-3.11-4.69-5.8-6.93-7.27h0c-1.23-.8-3.17-1.5-5.23-2.25-3.77-1.36-8.05-2.9-10.84-5.95-2.63-2.88-4.12-7.08-3.89-10.96.19-3.14,1.43-5.78,3.59-7.64,2.8-2.41,6.31-2.92,9.71-3.41,2.72-.39,5.3-.77,7.35-2.07,2.71-1.73,4.2-4.85,5.77-8.16.61-1.27,1.23-2.59,1.94-3.83,4.45-7.84,12.74-13.69,23.32-16.47,9.26-2.43,18.81-2.3,28.04-2.17,10.77.15,24.16.34,34.59,7.18,4.54,2.98,8.26,7.05,11.86,10.99,4.83,5.28,9.39,10.27,15.61,12.62.87.33,1.8.63,2.73.92,3.92,1.26,8.37,2.69,10.11,6.94,2.14,5.22-1.57,10.74-5.92,13.67-1.58,1.06-3.26,1.93-4.89,2.76-2.46,1.26-4.78,2.46-6.64,4.23-2.71,2.58-4.2,6.14-5.78,9.91-1.3,3.1-2.64,6.31-4.75,9.06-2.69,3.52-6.62,6.35-12.01,8.63-8.73,3.7-18.13,4.82-27.34,4.82ZM1614.75,258.68c-7.03,0-14.14.33-20.94,2.12-9.56,2.51-17.3,7.93-21.25,14.87-.65,1.14-1.22,2.34-1.83,3.62-1.71,3.59-3.48,7.3-7,9.55-2.66,1.7-5.72,2.14-8.68,2.57-3.05.44-5.93.86-7.99,2.63-1.83,1.58-2.33,3.74-2.42,5.29-.18,3.01.97,6.26,3.01,8.49,2.23,2.44,6.09,3.83,9.49,5.06,2.25.81,4.38,1.58,5.94,2.6h0c2.69,1.76,5.01,4.64,7.71,7.97,2.04,2.52,4.35,5.38,7.07,7.99,8.54,8.19,21.52,10.1,33.02,11.25,13.88,1.38,29.85,2.38,43.7-3.49,4.84-2.05,8.32-4.52,10.65-7.57,1.84-2.42,3.05-5.28,4.32-8.32,1.64-3.92,3.35-7.98,6.57-11.05,2.21-2.1,4.86-3.47,7.42-4.78,1.61-.83,3.13-1.61,4.55-2.56,3.36-2.26,6.04-6.28,4.69-9.59-1.15-2.8-4.49-3.87-8.03-5.01-.96-.31-1.95-.63-2.89-.98-6.98-2.63-12.03-8.16-16.91-13.5-3.46-3.79-7.04-7.7-11.22-10.45-9.6-6.3-22.45-6.48-32.78-6.62-2.05-.03-4.12-.06-6.2-.06Z" />
        <path class="cls-1"
            d="M1601.17,331.47c-3.3,0-6.55-.54-9.67-1.62-.29-.1-.45-.42-.35-.71.1-.29.42-.45.72-.35,3.11,1.07,6.35,1.58,9.64,1.55h0c.31,0,.56.25.56.56,0,.31-.24.57-.56.57-.12,0-.23,0-.35,0Z" />
        <path class="cls-1"
            d="M1606.1,323.35c-.3,0-.55-.24-.56-.54-.01-.31.23-.57.54-.58l6.12-.22c.29.01.57.23.58.54.01.31-.23.57-.54.58l-6.12.22h-.02Z" />
        <path class="cls-1"
            d="M1644.31,270.91c-.09,0-.18-.02-.27-.07-3.07-1.64-6.77-2.12-10.15-1.32-.3.07-.6-.11-.68-.42-.07-.3.12-.6.42-.68,3.65-.87,7.63-.35,10.94,1.42.27.15.38.49.23.76-.1.19-.3.3-.5.3Z" />
        <path class="cls-4"
            d="M1940.13,253.88c-5.66,10.51-4.95,22.3-2.76,28.3,3.81,10.41,13.23,23.74,37.19,21.12,4.22-.46,8.39-1.51,12.25-3.28,14-6.41,19.92-25.3,16.43-39.81-3.48-14.51-16.51-23.79-31.88-23.11-12.12.53-25.57,6.27-31.24,16.77ZM1973.77,250.74c9.86-.45,18.2,5.47,20.43,14.73,2.22,9.26-1.59,21.32-10.57,25.43-2.47,1.13-5.15,1.81-7.86,2.1-15.37,1.69-21.4-6.82-23.83-13.46-1.4-3.83-1.85-11.36,1.79-18.07,3.64-6.71,12.27-10.38,20.04-10.73Z" />
        <path class="cls-1"
            d="M1968.59,305.32c-20.1,0-28.93-11.98-32.81-22.57-2.56-6.99-2.76-19.26,2.86-29.68h0c6.18-11.47,20.85-17.13,32.65-17.66,16.16-.69,29.98,9.32,33.6,24.4,3.51,14.63-2.13,34.75-17.37,41.73-3.86,1.77-8.15,2.92-12.77,3.42-2.16.24-4.21.35-6.15.35ZM1941.61,254.68c-5.12,9.5-4.97,20.61-2.66,26.92,3.84,10.48,13.1,22.47,35.42,20.03,4.26-.47,8.21-1.52,11.73-3.14,13.68-6.27,18.7-24.54,15.5-37.88-3.29-13.7-15.42-22.48-30.17-21.82-10.84.48-24.27,5.58-29.83,15.89h0ZM1972.01,294.91c-14.01,0-19.55-9.05-21.65-14.78-1.68-4.59-1.81-12.63,1.89-19.46,4.37-8.05,14.28-11.29,21.45-11.61,10.66-.49,19.76,6.11,22.14,16.02,2.3,9.58-1.45,22.76-11.51,27.36-2.54,1.16-5.35,1.91-8.38,2.25-1.39.15-2.7.22-3.95.22ZM1973.77,250.74l.08,1.68c-6.78.31-15.18,3.47-18.64,9.85-3.68,6.8-2.72,13.89-1.69,16.69,3.46,9.43,10.88,13.6,22.06,12.36,2.67-.29,5.14-.95,7.34-1.96,8.23-3.76,11.62-15.19,9.63-23.5-2.03-8.45-9.57-13.85-18.71-13.44l-.08-1.68Z" />
        <path class="cls-4"
            d="M1838.82,300.06c-15.99-.62-30.04,7.16-36.17,13.32-10.64,10.68-21.76,29.81-5.33,57.01,2.89,4.79,6.49,9.18,10.78,12.77,15.58,13.02,41.97,9.02,57.81-3.67,15.84-12.7,20.01-33.77,10.69-51.81-7.34-14.22-21.79-26.99-37.78-27.61ZM1861.23,338.57c5.99,11.56,3.35,25.04-6.76,33.15-10.11,8.1-26.98,10.62-36.97,2.26-2.75-2.3-5.06-5.12-6.91-8.19-10.55-17.43-3.46-29.66,3.32-36.49,3.91-3.93,12.89-8.89,23.11-8.47,10.23.42,19.49,8.62,24.2,17.73Z" />
        <path class="cls-1"
            d="M1832.21,392.87c-9.18,0-18.13-2.52-25.19-8.43-4.25-3.56-8-7.99-11.14-13.19-16.62-27.51-6.14-47.31,5.58-59.07,7.05-7.08,21.74-14.39,37.43-13.81,17.25.67,32.12,14.81,39.21,28.52,9.82,19.02,5.35,40.68-11.14,53.9-9.13,7.32-22.15,12.08-34.75,12.08ZM1837.04,301.71c-13.99,0-26.9,6.54-33.19,12.85-10.87,10.91-20.58,29.31-5.08,54.95,2.95,4.87,6.45,9.03,10.42,12.34,15.44,12.9,40.92,8.13,55.67-3.69,15.2-12.18,19.32-32.16,10.25-49.72-6.63-12.85-20.44-26.08-36.34-26.7-.57-.02-1.15-.03-1.72-.03ZM1833.01,380.84c-6.03,0-11.93-1.67-16.58-5.56-2.78-2.33-5.22-5.22-7.27-8.61-10.87-17.97-4.06-30.88,3.57-38.55,4.59-4.61,14.18-9.38,24.38-8.96,12.05.5,21.34,10.35,25.63,18.64h0c6.35,12.26,3.39,26.75-7.2,35.24-5.91,4.73-14.34,7.8-22.52,7.8ZM1835.81,322.5c-8.74,0-16.78,4.06-20.7,8-6.78,6.81-12.82,18.32-3.08,34.42,1.86,3.07,4.06,5.68,6.55,7.77,9.66,8.09,25.6,5.11,34.83-2.28,9.47-7.59,12.01-20.07,6.32-31.06-4.18-8.08-12.85-16.41-22.78-16.82-.38-.02-.77-.02-1.15-.02Z" />
        <path class="cls-4"
            d="M2839.94,353.56c-2.2.13-4.47.71-5.95,2.35-1.48,1.64-2.14,3.98-1.74,6.15.23,1.26.81,2.44,1.58,3.46,1.83,2.42,4.85,4.17,7.88,3.9,7.26-.65,7.06-7.08,6.98-8.36-.14-2.27-1.36-4.42-3.16-5.8-1.8-1.38-4.12-1.79-5.59-1.7Z" />
        <path class="cls-1"
            d="M2841.12,371.14c-3.16,0-6.48-1.75-8.63-4.59-.97-1.28-1.62-2.72-1.89-4.17-.5-2.67.32-5.58,2.14-7.6,1.57-1.74,3.96-2.71,7.1-2.9,1.81-.11,4.53.37,6.72,2.05,2.22,1.7,3.65,4.33,3.82,7.03.28,4.51-1.8,9.54-8.51,10.14-.25.02-.5.03-.75.03ZM2840.35,355.23c-.11,0-.21,0-.31,0h0c-2.23.14-3.84.74-4.8,1.8-1.13,1.25-1.64,3.06-1.33,4.71.17.94.61,1.89,1.27,2.76,1.64,2.16,4.13,3.44,6.38,3.23,5.07-.45,5.59-4.31,5.45-6.57-.11-1.74-1.05-3.45-2.51-4.57-1.25-.96-2.92-1.37-4.15-1.37ZM2839.94,353.56h.01-.01Z" />
        <path class="cls-4"
            d="M2406,212.06c-2.2.13-4.47.71-5.95,2.35-1.48,1.64-2.14,3.98-1.74,6.15.24,1.26.81,2.44,1.58,3.46,1.83,2.42,4.85,4.17,7.88,3.9,7.26-.65,7.06-7.08,6.98-8.36-.14-2.27-1.36-4.42-3.16-5.8-1.8-1.38-4.12-1.79-5.59-1.7Z" />
        <path class="cls-1"
            d="M2407.18,229.64c-3.16,0-6.48-1.75-8.63-4.59-.97-1.28-1.62-2.72-1.89-4.17-.5-2.67.32-5.58,2.14-7.6,1.57-1.74,3.96-2.71,7.1-2.9,1.82-.11,4.53.37,6.72,2.05,2.22,1.7,3.65,4.33,3.82,7.03.29,4.51-1.8,9.54-8.51,10.14-.25.02-.5.03-.75.03ZM2406.41,213.74c-.11,0-.21,0-.31,0h0c-2.23.14-3.84.74-4.8,1.8-1.13,1.25-1.64,3.06-1.33,4.71.17.94.61,1.89,1.27,2.76,1.63,2.16,4.13,3.44,6.38,3.23,5.07-.46,5.59-4.31,5.44-6.57-.11-1.74-1.05-3.45-2.51-4.57-1.25-.96-2.92-1.37-4.15-1.37ZM2406,212.06h.01-.01Z" />
        <path class="cls-4"
            d="M1786.81,222.86c-2.2.13-4.47.71-5.95,2.35-1.48,1.64-2.14,3.98-1.74,6.15.23,1.26.81,2.44,1.58,3.46,1.83,2.42,4.85,4.17,7.88,3.9,7.26-.65,7.06-7.08,6.98-8.36-.14-2.27-1.36-4.42-3.16-5.8-1.8-1.38-4.12-1.79-5.59-1.7Z" />
        <path class="cls-1"
            d="M1787.98,240.44c-3.16,0-6.48-1.74-8.63-4.59-.97-1.28-1.62-2.72-1.89-4.17-.5-2.67.32-5.58,2.15-7.6,1.57-1.73,3.95-2.71,7.09-2.9h0c1.82-.11,4.53.37,6.72,2.05,2.22,1.7,3.65,4.33,3.82,7.03.29,4.51-1.8,9.54-8.51,10.14-.25.02-.5.03-.75.03ZM1786.91,224.55h0c-2.23.14-3.85.74-4.8,1.8-1.13,1.25-1.64,3.06-1.33,4.72.18.94.61,1.89,1.27,2.76,1.64,2.17,4.15,3.44,6.38,3.23,5.07-.45,5.59-4.31,5.45-6.57-.11-1.74-1.05-3.45-2.51-4.57-1.36-1.04-3.22-1.43-4.46-1.36Z" />
        <path class="cls-4"
            d="M1060.42,370.8c-2.2.13-4.47.71-5.95,2.35-1.48,1.64-2.14,3.98-1.74,6.15.23,1.26.81,2.44,1.58,3.46,1.83,2.42,4.85,4.17,7.88,3.9,7.26-.65,7.06-7.08,6.98-8.36-.14-2.27-1.36-4.42-3.16-5.8-1.8-1.38-4.12-1.79-5.59-1.7Z" />
        <path class="cls-1"
            d="M1061.6,388.38c-3.16,0-6.48-1.74-8.63-4.59-.97-1.28-1.62-2.72-1.89-4.17-.5-2.67.32-5.58,2.14-7.6,1.57-1.73,3.95-2.71,7.1-2.9h0c1.81-.11,4.53.37,6.72,2.05,2.22,1.7,3.65,4.33,3.82,7.03.29,4.51-1.8,9.54-8.51,10.14-.25.02-.5.03-.75.03ZM1060.53,372.48h0c-2.23.14-3.84.74-4.8,1.8-1.13,1.25-1.64,3.06-1.33,4.71.18.94.61,1.89,1.27,2.76,1.64,2.17,4.14,3.44,6.38,3.23,5.07-.45,5.59-4.31,5.45-6.57-.11-1.74-1.05-3.45-2.51-4.57-1.36-1.04-3.22-1.43-4.46-1.36Z" />
        <path class="cls-4"
            d="M803.08,61.14c-2.2.13-4.47.71-5.95,2.35-1.48,1.64-2.14,3.98-1.74,6.15.23,1.26.81,2.44,1.58,3.46,1.83,2.42,4.85,4.17,7.88,3.9,7.26-.65,7.06-7.08,6.98-8.36-.14-2.27-1.36-4.42-3.16-5.8-1.8-1.38-4.12-1.79-5.59-1.7Z" />
        <path class="cls-1"
            d="M804.26,78.72c-3.16,0-6.48-1.74-8.63-4.59-.97-1.28-1.62-2.72-1.89-4.17-.5-2.67.32-5.58,2.14-7.6,1.57-1.74,3.96-2.71,7.1-2.9,1.81-.11,4.53.37,6.72,2.05,2.22,1.7,3.65,4.33,3.82,7.03.29,4.51-1.8,9.54-8.51,10.15-.25.02-.5.03-.75.03ZM803.5,62.82c-.11,0-.21,0-.31,0h0c-2.23.14-3.84.74-4.8,1.8-1.13,1.25-1.64,3.06-1.33,4.71.18.94.61,1.89,1.27,2.76,1.63,2.17,4.14,3.44,6.38,3.23,5.07-.45,5.59-4.31,5.44-6.57-.11-1.74-1.05-3.45-2.51-4.57-1.25-.96-2.92-1.37-4.15-1.37ZM803.08,61.14h.01-.01Z" />
        <path class="cls-4"
            d="M412.46,328.13c-2.2.13-4.47.71-5.95,2.35-1.48,1.64-2.14,3.98-1.74,6.15.23,1.26.81,2.44,1.58,3.46,1.83,2.42,4.85,4.17,7.88,3.9,7.26-.65,7.06-7.08,6.98-8.36-.14-2.27-1.36-4.42-3.16-5.8-1.8-1.38-4.12-1.79-5.59-1.7Z" />
        <path class="cls-1"
            d="M413.63,345.7c-3.16,0-6.48-1.74-8.63-4.59-.97-1.28-1.62-2.72-1.89-4.17-.5-2.67.32-5.58,2.14-7.6,1.57-1.73,3.95-2.71,7.1-2.9h0c1.82-.11,4.53.37,6.72,2.05,2.22,1.7,3.65,4.33,3.82,7.03.29,4.51-1.8,9.54-8.51,10.14-.25.02-.5.03-.75.03ZM412.56,329.81h0c-2.23.14-3.84.74-4.8,1.8-1.13,1.25-1.64,3.06-1.33,4.71.17.94.61,1.89,1.27,2.76,1.64,2.16,4.15,3.44,6.38,3.23,5.07-.45,5.59-4.31,5.45-6.57-.11-1.74-1.05-3.45-2.51-4.57-1.36-1.04-3.21-1.43-4.46-1.36Z" />
        <path class="cls-4"
            d="M1177.52,302.2c-4.41.27-8.93,1.42-11.9,4.7-2.96,3.28-4.28,7.97-3.47,12.31.47,2.52,1.61,4.89,3.16,6.93,3.66,4.85,9.71,8.33,15.76,7.79,14.51-1.3,14.12-14.17,13.95-16.72-.29-4.53-2.72-8.84-6.32-11.61-3.6-2.77-8.23-3.59-11.18-3.41Z" />
        <path class="cls-1"
            d="M1179.86,335.67c-5.8,0-11.91-3.24-15.9-8.51-1.78-2.35-2.98-4.99-3.47-7.64-.9-4.83.58-10.1,3.88-13.75,2.83-3.13,7.22-4.9,13.04-5.25h0c3.16-.19,8.3.67,12.31,3.75,4.06,3.12,6.67,7.92,6.98,12.84.52,8.23-3.28,17.41-15.49,18.5-.45.04-.9.06-1.36.06ZM1177.62,303.88c-4.91.3-8.53,1.7-10.75,4.15-2.61,2.88-3.78,7.05-3.07,10.87.4,2.13,1.38,4.28,2.85,6.22,3.61,4.78,9.21,7.58,14.26,7.13,12-1.08,12.68-10.8,12.42-14.93-.25-3.96-2.37-7.84-5.67-10.38-3.27-2.51-7.46-3.21-10.05-3.06h0Z" />
        <path class="cls-4"
            d="M682.19,346.95c-4.41.27-8.93,1.42-11.9,4.7-2.96,3.28-4.28,7.97-3.47,12.31.47,2.52,1.61,4.89,3.16,6.93,3.66,4.85,9.71,8.33,15.76,7.79,14.51-1.3,14.12-14.17,13.95-16.72-.29-4.53-2.72-8.84-6.32-11.61-3.6-2.77-8.23-3.59-11.18-3.41Z" />
        <path class="cls-1"
            d="M684.53,380.42c-5.8,0-11.91-3.24-15.9-8.52-1.78-2.35-2.98-4.99-3.47-7.64-.9-4.83.58-10.1,3.88-13.75,2.83-3.13,7.22-4.9,13.04-5.25h0c3.16-.2,8.3.67,12.31,3.75,4.06,3.12,6.67,7.92,6.98,12.84.52,8.23-3.27,17.41-15.49,18.5-.45.04-.9.06-1.35.06ZM682.29,348.63c-4.91.3-8.53,1.7-10.75,4.15-2.61,2.88-3.78,7.05-3.07,10.87.4,2.13,1.38,4.29,2.84,6.22,3.61,4.78,9.21,7.58,14.26,7.13,12-1.08,12.68-10.8,12.42-14.93-.25-3.96-2.37-7.84-5.67-10.38-3.27-2.51-7.46-3.21-10.05-3.06h0Z" />
        <path class="cls-4"
            d="M413.31,138.6c-4.41.27-8.93,1.42-11.89,4.7-2.96,3.28-4.28,7.97-3.47,12.31.47,2.52,1.61,4.89,3.16,6.93,3.66,4.85,9.71,8.33,15.76,7.79,14.51-1.3,14.12-14.17,13.95-16.72-.29-4.53-2.72-8.84-6.32-11.61-3.6-2.77-8.23-3.59-11.18-3.41Z" />
        <path class="cls-1"
            d="M415.65,172.08c-5.8,0-11.91-3.24-15.9-8.52-1.78-2.35-2.98-4.99-3.47-7.63-.9-4.83.58-10.1,3.88-13.75,2.83-3.13,7.22-4.9,13.04-5.25,3.17-.2,8.3.67,12.31,3.75,4.06,3.12,6.67,7.92,6.98,12.84.52,8.23-3.27,17.41-15.49,18.5-.45.04-.9.06-1.35.06ZM414.13,140.27c-.25,0-.49,0-.71.02h0c-4.91.3-8.53,1.69-10.75,4.15-2.61,2.88-3.78,7.05-3.07,10.87.4,2.13,1.38,4.28,2.84,6.22,3.61,4.78,9.21,7.58,14.26,7.13,12-1.08,12.68-10.8,12.42-14.93-.25-3.96-2.37-7.84-5.67-10.38-2.98-2.29-6.73-3.08-9.33-3.08ZM413.31,138.6h.01-.01Z" />
    </g>
</svg>