<?xml version="1.0" encoding="UTF-8"?>
<svg id="Capa_1" xmlns="http://www.w3.org/2000/svg" viewBox="0 0 1841.16 1613.46">
    <defs>
        <style>
            .cls-1 {
                fill:#e5a8b3;
            }
        </style>
    </defs>
    <g id="logo">
        <path class="cls-1"
            d="m353.52,621.86c9.84,24.41,19.68,48.82,29.52,73.23,29.75,9.29,57.31,22.94,81.98,42.7-7.78-19.6-14.18-36.14-18.58-48.25-16.45-45.21-33.02-90.87-39.2-138.59-6.18-47.71-1.18-98.32,23.23-139.78,9.04-15.37,20.81-29.76,24.59-47.18,3.12-14.39.43-29.33-2.47-43.77-17.5-86.72-42.96-171.83-75.97-253.91-7.44-18.51-15.81-37.61-31.17-50.34-35.16-29.16-87.73-12.81-129.87,4.82-56.39,23.6-112.79,47.19-169.19,70.78-18.76,7.85-39.75,18.12-45.11,37.74-3.55,12.97.9,26.65,5.45,39.3,29.16,81,64.79,159.67,106.44,235.02,13.53,24.48,28.21,49.22,50.2,66.51,40.94,32.2,100.52,33.55,139.81,67.74,24.86,21.64,38.01,53.4,50.34,83.96Zm-21.81-550.94c30.01,75.8,103.91,265.8,67.4,287-36.52,21.2-98.12-182.5-133.46-263.09-22.54-51.43,47.43-70.97,66.06-23.91Zm-114.22,363.84c-40.65,11.43-125.54-173.9-159.05-248.23-20.8-46.14,42-81.73,63.21-29.74,33.24,81.49,136.49,266.53,95.84,277.97Zm-50.94-292.78c-20.8-46.14,38.51-76.21,59.72-24.22,33.24,81.48,121.05,267.83,80.4,279.27-40.65,11.44-106.61-180.73-140.12-255.05Z" />
        <path class="cls-1"
            d="m303.1,407.19c2.06,0,4.13-.29,6.18-.86,6.21-1.74,11.05-5.93,14.01-12.11,15.25-31.83-22.46-125.73-69.51-236.05-7.03-16.5-13.45-31.52-18.56-44.06-7.75-18.99-21.47-31.04-37.64-33.07-14.03-1.7-28.09,4.42-36.71,16.1-9.9,13.42-11.04,31.21-3.1,48.8,7.03,15.61,15.76,37.07,25,59.79,47.7,117.29,84.81,201.45,120.34,201.45Zm-102.46-208.72c-9.31-22.9-18.11-44.53-25.29-60.45-4.97-11.04-4.6-21.76,1.04-29.4,3.99-5.4,10.12-8.55,16.44-8.55.78,0,1.56.05,2.34.15,9.18,1.14,17.05,8.68,22.16,21.19,5.15,12.62,11.6,27.74,18.68,44.34,28.86,67.66,82.58,193.59,69.86,220.14-.75,1.55-1.36,1.73-1.82,1.86-1.39.39-14.43,2.13-45.12-56.8-20.13-38.64-40.4-88.49-58.29-132.48Z" />
        <path class="cls-1"
            d="m130.59,153.16c-10.05-24.64-27.08-30.26-36.33-31.41-15.22-1.93-30.71,5.1-40.44,18.28-10.63,14.4-12.15,32.8-4.18,50.47,79.75,176.9,129.63,254.39,164.34,254.39,2.1,0,4.14-.28,6.12-.84h0c6.13-1.72,10.82-5.81,13.54-11.8,12.61-27.7-20.21-101.23-67.95-202.08-13.77-29.1-26.78-56.58-35.12-77.02Zm85.49,271.1c-.46,1-.77,1.09-1.2,1.21-7.95,2.18-42.04-8.7-147.63-242.9-5.02-11.12-4.25-22.45,2.11-31.07,4.95-6.71,12.6-10.75,20.03-10.75.83,0,1.66.06,2.48.16,8.74,1.09,16.15,8.03,20.84,19.54,8.54,20.93,21.65,48.64,35.54,77.99,30.94,65.36,77.7,164.13,67.82,185.82Z" />
        <path class="cls-1"
            d="m386.07,367.78c2.52.9,5.04,1.35,7.51,1.35,3.61,0,7.11-.95,10.37-2.85h0c31.38-18.23,12.46-107.62-63.27-298.91-7.19-18.15-21.63-29.96-39.63-32.39-16.38-2.21-32.32,4-41.55,16.25-5.55,7.36-13.29,23.32-2.7,47.48,8.79,20.06,19.42,48.32,30.66,78.24,39.57,105.26,69.8,180.57,98.6,190.84Zm-111.58-276.82c-4.99-11.39-4.84-21.11.43-28.11,4.28-5.67,11.74-9,19.7-9,1.27,0,2.56.08,3.84.26,10.88,1.48,19.72,8.9,24.26,20.38,94.57,238.88,78.65,270.96,71.53,275.1-.38.21-.66.38-1.7,0-22.59-8.06-61.36-111.2-87.01-179.44-11.34-30.17-22.05-58.67-31.05-79.19Z" />
        <path class="cls-1"
            d="m739.3,1300.89c-29.71,4.69-62.66-.86-88.66-10.88-34.78-13.4-64.17-35.46-88.03-62.7,48.61,110.67,105.19,238.09,122.31,271.2,3.8,7.53,8.46,15.77,16.55,18.17,5.46,1.62,11.32.17,16.79-1.42,18.91-5.49,37.36-12.54,55.12-21.05,9.12-4.37,18.6-9.64,23.25-18.62,6.21-11.97,1.99-26.46-2.45-39.19-9.61-27.56-30.49-78.3-54.87-135.51Z" />
        <path class="cls-1"
            d="m1839.22,154.23c-15.6-5.45-133.66,224.11-176.66,298.69-52.31,90.74-109.37,46.09-100.16-24.52,14.44-110.73,56.72-356.02,45.97-352.01-12.93,4.83-36.66,82.26-50.66,124.91-22.29,67.94-38.19,137.89-61.76,205.39-66.55,190.6,20,183.38-8.71,265.6-7.54,21.6-15.32,44.7-23.22,68.61,26-8.51,53.96-8.6,78.29.68,4.78-13.52,9.54-27.05,14.27-40.59,30.1-86.21,107.54-45.39,182.98-261.43,33.03-94.58,115.24-279.89,99.64-285.34Z" />
        <path class="cls-1"
            d="m1388.77,1248.31c-41.42,45.24-98,67.21-157.14,75.55-33.05,99.52-65.64,199.31-73.72,229.84-2.25,8.14-4.32,17.36.06,24.57,2.96,4.87,8.28,7.72,13.39,10.22,17.7,8.63,36.11,15.8,54.98,21.42,9.7,2.88,20.26,5.33,29.74,1.81,12.63-4.7,19.24-18.27,24.5-30.68,25.02-59.07,84.85-237.54,121.64-348.99-4.23,5.57-8.65,11.03-13.44,16.26Z" />
        <path class="cls-1"
            d="m489.92,991.25c-11.22-6.42-25-7.75-42.07-4.07-5.12,1.1-10.07,1.73-15.02,2.37-4.95.64-9.9,1.28-14.96,2.29-23.57,4.68-42.82,22.92-47.9,45.38-2.03,8.96-1.96,17.93-1.9,26.61.09,12.11.18,22.58-5.43,29.3-2.64,3.18-6.87,5.73-12.57,7.59-8.99,2.93-18.99,3.28-28.15,1-14.2-3.54-27.65-13.55-37.88-28.19-8.49-12.16-14.86-27.04-20.66-48.24-2.85-10.44-5.38-21.56-4.55-32.17.9-11.51,5.97-23.74,14.66-35.36,13.9-18.59,33.57-30.25,52.59-31.18,7.46-.38,13.39,1.25,16.4,4.42,1.38,1.45,2.85,3.72,4.4,6.12,4.35,6.72,10.91,16.88,23.73,17.33,6.25.28,11.2-2.17,14.53-3.75,4.01-1.89,8.54-3.89,13.37-6.01,29.11-12.79,68.97-30.31,78.3-62.8,10.69-37.28-30.3-106.14-61.07-126.55-45.15-29.95-114.33-23.24-162.83-3.32-90.54,37.17-158.59,119.91-177.6,215.93-13.03,65.87-2.36,135.85,30.05,197.06,18.52,34.97,39.17,61.44,61.36,78.68,26.99,20.98,61.98,36.28,103.99,45.45,22.68,4.95,44.63,7.43,65.7,7.43,19.49,0,38.24-2.12,56.1-6.36,42.99-10.21,80.24-33.14,104.89-64.56,21.04-26.82,32.47-59.58,32.17-92.25-.38-43.25-4.4-75.94-12.64-102.86-5.94-19.42-14.78-32.28-27.01-39.28Zm-11.38,219.59c-21.32,27.17-53.84,47.07-91.57,56.04-33.63,7.99-71.04,7.6-111.14-1.16-38.49-8.41-70.25-22.19-94.4-40.96-19.49-15.15-37.96-39.03-54.89-70.98-29.84-56.35-39.68-120.7-27.71-181.18,17.19-86.89,81.25-164.77,163.19-198.41,22.03-9.05,49.84-15.23,76.71-15.23,23.47,0,46.23,4.72,63.77,16.36,24.92,16.53,58.14,76.04,51.28,99.96-6.23,21.67-40.14,36.58-64.9,47.46-5.06,2.22-9.8,4.31-14,6.3-.94.45-2.88,1.37-2.91,1.59-1.15-.66-3.52-4.33-4.94-6.52-1.99-3.08-4.24-6.56-7.16-9.64-7.94-8.36-20.45-12.63-34.95-11.85-26.08,1.29-52.48,16.53-70.61,40.77-11.41,15.25-18.1,31.8-19.36,47.85-1.12,14.26,1.9,27.82,5.33,40.36,6.55,23.97,13.99,41.12,24.12,55.64,13.54,19.39,31.92,32.79,51.73,37.73,13.69,3.44,28,2.92,41.4-1.48,10.05-3.29,17.97-8.35,23.53-15.03,11.24-13.47,11.1-30.14,10.99-44.84-.06-7.65-.12-14.87,1.3-21.13,2.99-13.17,14.99-24.34,29.19-27.17,4.52-.9,8.94-1.45,13.35-2.03,5.61-.72,11.23-1.46,17.02-2.71,11.19-2.41,19.17-1.95,25.1,1.45,6.69,3.83,11.92,12.17,16,25.49,7.55,24.66,11.23,55.19,11.6,96.07.24,26.86-9.62,55.02-27.06,77.24Z" />
        <path class="cls-1"
            d="m786.33,936.55c-16.94-11.27-37.95-14.72-59.13-9.72-23.03,5.43-43.54,20.47-54.87,40.23-9.26,16.14-14.75,34.47-15.88,53.03-.94,15.39,1.11,29.75,6.09,42.69,12.8,33.28,47.14,56.07,82.53,56.07,3.29,0,6.59-.2,9.88-.6,38.68-4.76,71.46-37.51,76.25-76.17,1.44-11.67.65-24.08-2.44-37.95-6.62-29.77-21.69-53.77-42.42-67.57Zm21.07,102.58c-3.43,27.63-27.75,51.93-55.38,55.33-27.62,3.39-57.12-14.3-67.12-40.29-3.74-9.71-5.26-20.68-4.53-32.61.9-14.89,5.31-29.62,12.74-42.57,8.1-14.11,22.89-24.89,39.59-28.82,4.49-1.06,8.95-1.58,13.3-1.58,9.86,0,19.18,2.69,27.05,7.93,15.57,10.35,27.03,29.11,32.3,52.81,2.47,11.16,3.15,20.91,2.05,29.81Z" />
        <path class="cls-1"
            d="m923.57,863.73c-37.53-60.54-101.27-99.62-170.48-104.53-62.2-4.36-118.61,19.57-158.71,67.51-57.72,69.03-67.03,162.77-64.68,229.25,1.92,54.32,16.18,152.06,90.04,196.42,40.15,24.11,87.02,26.55,135.53,27.04,3.08.03,6.11.05,9.12.05,23.79,0,45.51-1.33,66.41-9.59,31.55-12.46,54.55-38.66,75.4-64.42,23.46-28.99,47.3-60.4,58.55-97.46,12.65-41.66,7.79-85.21,2.14-118.51-8.91-52.48-22.67-92.44-43.32-125.76Zm18.24,237.31c-10,32.92-32.29,62.19-54.26,89.34-19.62,24.25-39.41,46.87-65.57,57.21-19.49,7.7-41.63,8.1-66.46,7.86-45.09-.46-88.45-2.61-123.44-23.62-64.16-38.54-76.68-127.27-78.43-176.72-2.2-62.29,6.26-149.82,59.11-213.03,32.29-38.61,76.64-59.42,125.97-59.42,4.19,0,8.41.15,12.66.45,60.65,4.3,118.81,40.03,151.8,93.24,18.96,30.6,31.69,67.83,40.06,117.15,5.21,30.69,9.75,70.66-1.44,107.54Z" />
        <path class="cls-1"
            d="m1231.85,936.55c-16.94-11.26-37.94-14.73-59.14-9.72-23.02,5.43-43.54,20.48-54.86,40.23-9.26,16.14-14.75,34.47-15.88,53.03-.94,15.39,1.11,29.74,6.08,42.69,12.81,33.28,47.16,56.07,82.55,56.07,3.28,0,6.58-.2,9.87-.6,38.68-4.76,71.46-37.51,76.24-76.17,1.44-11.67.65-24.08-2.44-37.95-6.62-29.77-21.68-53.77-42.42-67.57Zm21.06,102.58c-3.42,27.63-27.74,51.93-55.37,55.33-27.67,3.39-57.12-14.3-67.12-40.29-3.73-9.71-5.26-20.68-4.52-32.62.9-14.89,5.31-29.62,12.74-42.57,8.09-14.11,22.89-24.88,39.58-28.82,4.5-1.06,8.96-1.58,13.31-1.58,9.86,0,19.18,2.69,27.05,7.93,15.56,10.35,27.03,29.11,32.29,52.81,2.48,11.16,3.15,20.91,2.05,29.81Z" />
        <path class="cls-1"
            d="m1369.09,863.73c-37.53-60.54-101.27-99.62-170.48-104.53-62.23-4.36-118.62,19.57-158.71,67.51-57.72,69.03-67.03,162.77-64.67,229.25,1.92,54.32,16.18,152.07,90.04,196.42,40.15,24.11,87.02,26.55,135.54,27.04,3.08.03,6.11.05,9.13.05,23.78,0,45.51-1.33,66.4-9.59,31.54-12.46,54.54-38.66,75.4-64.42,23.46-28.99,47.3-60.4,58.55-97.46,12.66-41.67,7.8-85.22,2.14-118.51-8.9-52.48-22.66-92.43-43.32-125.76Zm18.24,237.31c-10,32.92-32.29,62.19-54.26,89.34-19.63,24.25-39.41,46.87-65.57,57.21-19.5,7.7-41.65,8.1-66.46,7.86-45.09-.46-88.46-2.61-123.44-23.62-64.15-38.53-76.67-127.27-78.43-176.72-2.2-62.29,6.26-149.82,59.11-213.03,32.29-38.61,76.64-59.42,125.97-59.42,4.19,0,8.41.15,12.66.45,60.65,4.3,118.82,40.03,151.8,93.25,18.97,30.6,31.7,67.82,40.06,117.14,5.21,30.69,9.75,70.66-1.44,107.54Z" />
        <path class="cls-1"
            d="m1798.42,1134.91c-6.06-7.51-11.78-14.61-15.81-21.71-5.31-9.34-10.46-18.67-15.6-27.97-13.49-24.42-27.44-49.67-43.81-74.56-11.54-17.54-25.13-36.27-44.4-47.7,60.56-42.7,101.35-95.17,124.36-159.8,1.22-3.44,3.26-9.22,2.01-15.72-1.81-9.39-9-15.19-15.8-19.63-24.34-15.89-53.1-26.73-83.16-31.33-12.47-1.91-30.67-3.36-44.93,6.09-9.67,6.38-14.55,15.98-18.11,22.99-6.14,12.07-11.67,26.67-17.52,42.14-11.04,29.17-23.35,61.72-41.62,80.88-9.96-17.89-12.98-48.59-14.92-68.2l-.87-8.69c-.73-7.04-1.55-15.04-5.28-22.89-21.29-44.95-79.63-19.98-107.66-7.99l-4.78,2.04c-6.93,2.92-14.83,6.59-20.64,13.01-10.75,11.88-9.76,27.59-9.16,36.97l16.79,266.2c1.93,30.69,3.94,62.42,8.96,93.64.5,3.12.88,7.25,1.32,11.91,1.99,20.97,4.72,49.69,20.92,61.38,9.31,6.72,21.2,6.87,29.07,6.98.92,0,1.83.02,2.74.02,35.08,0,61.16-9.53,77.52-28.33,18.56-21.33,24.23-53.49,17.35-98.29-.95-6.21-2.05-12.45-3.13-18.7-3.11-17.82-6.11-35.03-6.14-51.63,21.52,38.85,35.98,81.18,50.04,122.37,3.26,9.55,6.52,19.1,9.86,28.6,3.47,9.85,9.91,28.17,27.67,36.37,12.71,5.86,26.4,4.72,40.52,2.9l8.4-1.11h.01c17.81-2.42,38.4-5.71,57.35-14.12,25.33-11.25,42.31-30.4,45.42-51.23,3.96-26.5-12.48-46.89-26.98-64.88Zm3.27,61.34c-1.87,12.48-13.92,25.08-31.45,32.87-14.45,6.42-30.77,9.54-50.83,12.27l-8.29,1.09c-10.48,1.36-20.45,2.31-27.38-.89-7.16-3.3-10.96-10.78-15.1-22.56-3.31-9.44-6.55-18.91-9.79-28.4-18.01-52.75-36.63-107.3-70.03-155.89-2.6-3.79-7.15-5.81-11.68-5.06-4.55.69-8.29,3.92-9.64,8.31-9.71,31.42-4.19,63.11,1.15,93.76,1.07,6.1,2.12,12.18,3.05,18.23,5.75,37.41,1.92,63.23-11.74,78.91-11.95,13.72-32.9,20.43-61.85,20.08-4.86-.06-12.2-.17-15.38-2.46-7.39-5.34-9.88-31.59-11.08-44.2-.5-5.26-.95-9.92-1.53-13.46-4.84-30.08-6.8-61.22-8.7-91.34l-16.79-266.2c-.52-8.21-.64-15.33,3.01-19.37,2.54-2.8,7.62-5.09,12.2-7.02l4.9-2.09c19.04-8.15,39.16-15.95,54.44-15.95,10.02,0,17.95,3.36,22.13,12.17,1.96,4.13,2.5,9.45,3.08,15.08l.87,8.58c2.8,28.44,7.03,71.42,28.86,91.99,4.19,3.96,10.61,4.36,15.28.97,29.04-21.15,44.79-62.79,58.67-99.51,5.61-14.83,10.91-28.84,16.46-39.75,3.26-6.42,5.89-11.17,9.97-13.87,5.51-3.65,14.7-4.43,28.07-2.38,26.71,4.09,52.19,13.67,73.69,27.71,4.3,2.81,5.24,4.12,5.33,3.74-.02.7-.73,2.69-1.03,3.52-23.49,65.96-67.23,118.41-133.72,160.32-4.12,2.6-6.26,7.43-5.41,12.22.85,4.8,4.52,8.61,9.27,9.63,23.49,5.06,38.8,25.75,52.46,46.52,15.86,24.12,29.58,48.96,42.86,72.97,5.18,9.39,10.38,18.8,15.73,28.21,4.99,8.8,11.6,17,17.99,24.93,12.52,15.52,24.34,30.19,21.93,46.29Z" />
        <path class="cls-1"
            d="m635.02,709c.52,6.22,5.71,10.99,11.94,10.99h.2c67.23-1.12,162.48-8.9,163.43-8.97,6.6-.54,11.5-6.33,10.96-12.93-.54-6.6-6.31-11.39-12.93-10.96-.89.08-85.24,6.97-150.59,8.66-2.81-38.62-4.37-85.03-6.01-133.9-3.09-91.94-6.28-187-18.12-255.73-1.13-6.52-7.35-10.91-13.85-9.78-6.52,1.13-10.9,7.33-9.78,13.85,11.57,67.12,14.73,161.34,17.79,252.47,1.81,54.02,3.53,105.04,6.95,146.32Z" />
        <path class="cls-1"
            d="m1147.54,333.42c1.52,10.43-3.04,23.57-9.77,33.13-3.81,5.42-2.51,12.89,2.91,16.7,2.09,1.48,4.51,2.19,6.88,2.19,3.77,0,7.48-1.78,9.81-5.09,13.95-19.83,21.48-50.61,5.07-71.36l-.04-.05c-12.58-15.85-25.77-14.61-33.25-8.7-8.61,6.81-10.48,19.99-4,28.23,2.22,2.82,9.35,9.76,22.39,4.95Z" />
        <path class="cls-1"
            d="m1234.47,498.12c3.4.95,7.25,1.93,11.46,3,31.63,8.08,84.57,21.6,92,58.13,6.93,34.07-7.31,62.04-39.06,76.73-39.88,18.43-103.52,10.96-142.92-39.23-4.1-5.21-11.61-6.11-16.83-2.03-5.21,4.09-6.11,11.62-2.03,16.83,31.89,40.62,76.12,57.82,116.71,57.82,19.87,0,38.87-4.12,55.12-11.63,42.07-19.45,61.69-58.06,52.49-103.27-10.42-51.24-72.48-67.1-109.55-76.56-4.03-1.03-7.73-1.97-10.99-2.88-27.19-7.53-54.07-28.39-52.84-53.69,1.1-22.65,23.31-38.42,32.81-44.15,28.94-17.46,71.64-20.28,104.63,24.2,3.94,5.31,11.44,6.42,16.77,2.49,5.32-3.94,6.43-11.45,2.48-16.77-42.61-57.42-100.04-52.31-136.26-30.44-27.03,16.3-43.21,39.45-44.37,63.51-1.93,39.63,35.13,68.18,70.38,77.94Z" />
        <path class="cls-1"
            d="m764.19,644.6c2.2,1.94,5.03,3.01,7.95,3.01l.82-.02,146.69-10.07c6.61-.46,11.59-6.18,11.14-12.78-.45-6.6-6.12-11.52-12.78-11.14l-134.53,9.24-5.33-102.75h71.62c6.62-.01,11.99-5.38,11.99-11.99,0-6.62-5.37-11.99-11.99-11.98h-72.87s-5.39-103.72-5.39-103.72l128.41-6.8c6.61-.35,11.68-6,11.34-12.6-.36-6.62-6.04-11.65-12.6-11.34l-140.37,7.44c-6.61.35-11.68,5.99-11.34,12.59l13.21,254.56c.17,3.21,1.62,6.22,4.02,8.35Z" />
        <path class="cls-1"
            d="m893.8,323.54l1.13-.06c38.18-3.59,71.57-5.87,99.36-7.33,2.21,58.04,4.42,118.03,6.62,178.07,2.31,62.94,4.63,125.88,6.94,186.51.25,6.46,5.56,11.52,11.97,11.52h.47c6.61-.25,11.77-5.82,11.52-12.44-2.31-60.62-4.63-123.54-6.94-186.47-2.21-60.13-4.42-120.21-6.63-178.33,41.84-1.73,65.73-1.41,66.16-1.41,6.36.18,12.06-5.17,12.17-11.8.11-6.62-5.17-12.07-11.79-12.17-.75-.03-74.77-1.04-192.09,9.98-6.59.61-11.43,6.47-10.81,13.05.58,6.21,5.8,10.87,11.92,10.87Z" />
    </g>
</svg>